<svg width="32" height="31" viewBox="0 0 32 31" fill="none" xmlns="http://www.w3.org/2000/svg">
<path d="M31.5041 23.6682H30.0165C29.7426 23.6682 29.5207 23.4463 29.5207 23.1724V14.1641C29.5207 10.2456 26.3448 7.06967 22.4262 7.06967H13.5856C12.4746 7.06967 11.5738 7.97049 11.5738 9.08147V11.9209C11.5738 12.1948 11.3519 12.4168 11.078 12.4168H9.59035C9.31644 12.4168 9.09448 12.1948 9.09448 11.9209V9.08147C9.09448 6.60096 11.1051 4.59033 13.5856 4.59033H22.4262C27.7143 4.59033 32 8.87722 32 14.1641V23.1724C32 23.4463 31.778 23.6682 31.5041 23.6682Z" fill="white"/>
<path d="M12.1689 21.9256H9.03313C6.55262 21.9256 4.54199 19.915 4.54199 17.4345V9.24911C4.54199 4.14167 8.68248 0 13.7911 0H23.124C23.3979 0 23.6199 0.22196 23.6199 0.495867V1.98347C23.6199 2.25738 23.3979 2.47934 23.124 2.47934H13.7911C10.052 2.47934 7.02133 5.51003 7.02133 9.24911V17.4345C7.02133 18.5454 7.92215 19.4463 9.03313 19.4463H12.1689C12.4428 19.4463 12.6648 19.6682 12.6648 19.9421V21.4297C12.6648 21.7036 12.4428 21.9256 12.1689 21.9256Z" fill="white"/>
<path d="M17.5263 30.9668H8.88527C8.61136 30.9668 8.3894 30.7448 8.3894 30.4709V28.9833C8.3894 28.7094 8.61136 28.4875 8.88527 28.4875H17.5263C21.648 28.4875 24.988 25.1462 24.988 21.0258V13.6693C24.988 12.6232 24.1403 11.7755 23.0942 11.7755H22.2678C21.9939 11.7755 21.7719 11.5536 21.7719 11.2797V9.79207C21.7719 9.51816 21.9939 9.2962 22.2678 9.2962H23.0942C25.5098 9.2962 27.4673 11.2537 27.4673 13.6693V21.0258C27.4673 26.5158 23.0163 30.9668 17.5263 30.9668Z" fill="white"/>
<path d="M17.1842 26.4617H9.28098C4.15466 26.4617 0 22.3058 0 17.1807V9.08507C0 8.81116 0.22196 8.5892 0.495867 8.5892H1.98347C2.25738 8.5892 2.47934 8.81116 2.47934 9.08507V17.1807C2.47934 20.9375 5.5242 23.9823 9.28098 23.9823H17.1842C18.9834 23.9823 20.4427 22.5231 20.4427 20.7238V15.0827H22.9221V20.7238C22.9221 23.8926 20.353 26.4617 17.1842 26.4617Z" fill="white"/>
<path d="M8.1521 16.9232V16.5525C8.1521 16.2786 8.37406 16.0566 8.64797 16.0566H8.70109C8.67158 15.9692 8.65151 15.8795 8.64088 15.7874C8.63026 15.6965 8.62435 15.6021 8.62435 15.5076C8.62435 15.2691 8.66804 15.0353 8.75658 14.8039C8.84395 14.5737 8.97382 14.3671 9.1462 14.1865C9.31857 14.0046 9.53226 13.8583 9.78846 13.7473C10.0447 13.6351 10.341 13.5796 10.6787 13.5796H12.1462C12.4201 13.5796 12.6421 13.8016 12.6421 14.0755V14.4509C12.6421 14.7248 12.4189 14.948 12.145 14.9468L10.6787 14.9433C10.5582 14.9433 10.4543 14.9598 10.3682 14.9928C10.282 15.0259 10.2099 15.0684 10.1509 15.1192C10.0919 15.1699 10.0494 15.2313 10.0222 15.301C9.99507 15.3706 9.9809 15.4403 9.9809 15.51C9.9809 15.6457 10.0305 15.7673 10.1297 15.8748C10.2288 15.9834 10.3882 16.0448 10.6078 16.059H12.1781C12.452 16.059 12.6739 16.2809 12.6739 16.5548V16.9255C12.6739 17.1995 12.452 17.4214 12.1781 17.4214H8.64915C8.37524 17.4214 8.15328 17.1995 8.15328 16.9255L8.1521 16.9232Z" fill="white"/>
<path d="M17.6503 11.6329C17.7967 11.7793 17.9668 11.895 18.1616 11.9788C18.3564 12.0638 18.563 12.1063 18.7814 12.1063C18.9998 12.1063 19.2194 12.0638 19.4142 11.9788C19.609 11.8938 19.779 11.7781 19.9254 11.6329C20.0718 11.4865 20.1864 11.3165 20.2714 11.1228C20.3564 10.928 20.3989 10.7214 20.3989 10.503C20.3989 10.2846 20.3564 10.065 20.2714 9.87137C20.1864 9.67657 20.0707 9.50656 19.9254 9.36016C19.779 9.21376 19.609 9.10042 19.4142 9.02014C19.2194 8.93867 19.0093 8.89853 18.7814 8.89853C18.5535 8.89853 18.3564 8.93867 18.1616 9.02014C17.9668 9.1016 17.7967 9.21494 17.6503 9.36016C17.504 9.50656 17.3906 9.67657 17.3103 9.87137C17.2289 10.0662 17.1887 10.2763 17.1887 10.503C17.1887 10.7297 17.2289 10.928 17.3103 11.1228C17.3906 11.3177 17.5051 11.4877 17.6503 11.6329Z" fill="white"/>
<path d="M14.0268 11.6329C14.1732 11.7793 14.3432 11.895 14.538 11.9788C14.7328 12.0638 14.9394 12.1063 15.1579 12.1063C15.3763 12.1063 15.5959 12.0638 15.7907 11.9788C15.9855 11.8938 16.1555 11.7781 16.3019 11.6329C16.4483 11.4865 16.5628 11.3164 16.6478 11.1228C16.7328 10.928 16.7753 10.7214 16.7753 10.503C16.7753 10.2846 16.7328 10.065 16.6478 9.87134C16.5628 9.67654 16.4471 9.50653 16.3019 9.36013C16.1555 9.21373 15.9855 9.10039 15.7907 9.0201C15.5959 8.93864 15.3857 8.8985 15.1579 8.8985C14.93 8.8985 14.7328 8.93864 14.538 9.0201C14.3432 9.10157 14.1732 9.21491 14.0268 9.36013C13.8804 9.50535 13.7671 9.67654 13.6868 9.87134C13.6053 10.0661 13.5652 10.2763 13.5652 10.503C13.5652 10.7297 13.6053 10.928 13.6868 11.1228C13.7671 11.3176 13.8816 11.4876 14.0268 11.6329Z" fill="white"/>
<path d="M18.4 21.9811C15.9065 21.9811 13.877 19.9527 13.877 17.4592V15.268C13.877 13.9822 14.923 12.9374 16.2075 12.9374H20.5901C21.8758 12.9374 22.9206 13.9834 22.9206 15.268V17.4592C22.9206 19.9527 20.8923 21.9811 18.3988 21.9811H18.4ZM16.3563 15.4155V17.458C16.3563 18.5844 17.2725 19.5005 18.3988 19.5005C19.5251 19.5005 20.4413 18.5844 20.4413 17.458V15.4155H16.3551H16.3563Z" fill="white"/>
</svg>
