<svg width="50" height="49" viewBox="0 0 50 49" fill="none" xmlns="http://www.w3.org/2000/svg">
<path d="M49.2001 36.9627H46.8769C46.4491 36.9627 46.1025 36.6161 46.1025 36.1883V22.1201C46.1025 16.0005 41.1427 11.0407 35.0231 11.0407H21.2167C19.4817 11.0407 18.0749 12.4475 18.0749 14.1825V18.6169C18.0749 19.0447 17.7282 19.3913 17.3005 19.3913H14.9773C14.5495 19.3913 14.2029 19.0447 14.2029 18.6169V14.1825C14.2029 10.3087 17.3429 7.16873 21.2167 7.16873H35.0231C43.2815 7.16873 49.9745 13.8636 49.9745 22.1201V36.1883C49.9745 36.6161 49.6278 36.9627 49.2001 36.9627Z" fill="#4451A3"/>
<path d="M19.0042 34.2412H14.1071C10.2333 34.2412 7.09326 31.1012 7.09326 27.2274V14.4443C7.09326 6.46805 13.5595 0 21.5376 0H36.1128C36.5406 0 36.8872 0.346635 36.8872 0.774397V3.09759C36.8872 3.52535 36.5406 3.87198 36.1128 3.87198H21.5376C15.6983 3.87198 10.9652 8.60502 10.9652 14.4443V27.2274C10.9652 28.9624 12.3721 30.3692 14.1071 30.3692H19.0042C19.432 30.3692 19.7786 30.7159 19.7786 31.1436V33.4668C19.7786 33.8946 19.432 34.2412 19.0042 34.2412Z" fill="#4451A3"/>
<path d="M27.3712 48.3609H13.8764C13.4487 48.3609 13.1021 48.0143 13.1021 47.5865V45.2633C13.1021 44.8355 13.4487 44.4889 13.8764 44.4889H27.3712C33.8079 44.4889 39.024 39.2709 39.024 32.8361V21.3474C39.024 19.7138 37.7002 18.3899 36.0666 18.3899H34.7759C34.3482 18.3899 34.0015 18.0433 34.0015 17.6155V15.2923C34.0015 14.8646 34.3482 14.5179 34.7759 14.5179H36.0666C39.839 14.5179 42.896 17.5749 42.896 21.3474V32.8361C42.896 41.4098 35.9449 48.3609 27.3712 48.3609Z" fill="#4451A3"/>
<path d="M26.8365 41.3252H14.4941C6.48834 41.3252 0 34.8351 0 26.8311V14.1882C0 13.7604 0.346635 13.4138 0.774396 13.4138H3.09758C3.52535 13.4138 3.87198 13.7604 3.87198 14.1882V26.8311C3.87198 32.6981 8.62714 37.4532 14.4941 37.4532H26.8365C29.6465 37.4532 31.9254 35.1743 31.9254 32.3644V23.5547H35.7974V32.3644C35.7974 37.3131 31.7853 41.3252 26.8365 41.3252Z" fill="#4451A3"/>
<path d="M12.7314 26.429V25.85C12.7314 25.4223 13.0781 25.0756 13.5058 25.0756H13.5888C13.5427 24.9392 13.5114 24.7991 13.4948 24.6552C13.4782 24.5133 13.469 24.3658 13.469 24.2183C13.469 23.8458 13.5372 23.4807 13.6755 23.1194C13.8119 22.7598 14.0147 22.4372 14.2839 22.155C14.5531 21.8711 14.8868 21.6425 15.287 21.4692C15.6871 21.294 16.1499 21.2073 16.6772 21.2073H18.969C19.3968 21.2073 19.7434 21.554 19.7434 21.9817V22.5681C19.7434 22.9958 19.3949 23.3443 18.9672 23.3425L16.6772 23.3369C16.4891 23.3369 16.3269 23.3627 16.1923 23.4144C16.0577 23.466 15.9452 23.5324 15.853 23.6117C15.7608 23.6909 15.6944 23.7868 15.652 23.8956C15.6096 24.0044 15.5875 24.1132 15.5875 24.2219C15.5875 24.434 15.6649 24.6239 15.8198 24.7917C15.9747 24.9613 16.2236 25.0572 16.5666 25.0793H19.0188C19.4466 25.0793 19.7932 25.426 19.7932 25.8537V26.4327C19.7932 26.8604 19.4466 27.2071 19.0188 27.2071H13.5077C13.0799 27.2071 12.7333 26.8604 12.7333 26.4327L12.7314 26.429Z" fill="#4451A3"/>
<path d="M27.5647 18.1671C27.7933 18.3957 28.0588 18.5764 28.363 18.7073C28.6673 18.8401 28.9899 18.9065 29.331 18.9065C29.6721 18.9065 30.0151 18.8401 30.3193 18.7073C30.6235 18.5746 30.889 18.3939 31.1177 18.1671C31.3463 17.9385 31.5252 17.6729 31.6579 17.3706C31.7907 17.0663 31.857 16.7437 31.857 16.4026C31.857 16.0615 31.7907 15.7185 31.6579 15.4161C31.5252 15.1119 31.3445 14.8464 31.1177 14.6178C30.889 14.3891 30.6235 14.2121 30.3193 14.0868C30.0151 13.9595 29.6869 13.8968 29.331 13.8968C28.9752 13.8968 28.6673 13.9595 28.363 14.0868C28.0588 14.214 27.7933 14.391 27.5647 14.6178C27.336 14.8464 27.159 15.1119 27.0337 15.4161C26.9064 15.7204 26.8438 16.0486 26.8438 16.4026C26.8438 16.7566 26.9064 17.0663 27.0337 17.3706C27.159 17.6748 27.3379 17.9403 27.5647 18.1671Z" fill="#4451A3"/>
<path d="M21.906 18.167C22.1346 18.3957 22.4001 18.5764 22.7044 18.7073C23.0086 18.84 23.3312 18.9064 23.6723 18.9064C24.0134 18.9064 24.3564 18.84 24.6606 18.7073C24.9649 18.5745 25.2304 18.3938 25.459 18.167C25.6876 17.9384 25.8665 17.6729 25.9992 17.3705C26.132 17.0663 26.1984 16.7436 26.1984 16.4025C26.1984 16.0614 26.132 15.7185 25.9992 15.4161C25.8665 15.1119 25.6858 14.8463 25.459 14.6177C25.2304 14.3891 24.9649 14.2121 24.6606 14.0867C24.3564 13.9595 24.0282 13.8968 23.6723 13.8968C23.3165 13.8968 23.0086 13.9595 22.7044 14.0867C22.4001 14.2139 22.1346 14.3909 21.906 14.6177C21.6774 14.8445 21.5003 15.1119 21.375 15.4161C21.2477 15.7203 21.1851 16.0485 21.1851 16.4025C21.1851 16.7565 21.2477 17.0663 21.375 17.3705C21.5003 17.6747 21.6792 17.9402 21.906 18.167Z" fill="#4451A3"/>
<path d="M28.7355 34.3278C24.8414 34.3278 21.6719 31.1602 21.6719 27.2661V23.844C21.6719 21.8361 23.3055 20.2043 25.3115 20.2043H32.1557C34.1636 20.2043 35.7954 21.8379 35.7954 23.844V27.2661C35.7954 31.1602 32.6277 34.3278 28.7336 34.3278H28.7355ZM25.5439 24.0745V27.2642C25.5439 29.0232 26.9746 30.454 28.7336 30.454C30.4926 30.454 31.9234 29.0232 31.9234 27.2642V24.0745H25.542H25.5439Z" fill="#4451A3"/>
</svg>
